<?xml version="1.0" standalone="no"?>
<!DOCTYPE svg PUBLIC "-//W3C//DTD SVG 20010904//EN"
 "http://www.w3.org/TR/2001/REC-SVG-20010904/DTD/svg10.dtd">
<svg version="1.0" xmlns="http://www.w3.org/2000/svg"
 width="708.000000pt" height="708.000000pt" viewBox="0 0 708.000000 708.000000"
 preserveAspectRatio="xMidYMid meet">
<metadata>
Created by potrace 1.14, written by Peter Selinger 2001-2017
</metadata>
<g transform="translate(0.000000,708.000000) scale(0.100000,-0.100000)"
fill="#000000" stroke="none">
<path d="M436 7028 c2 -3 18 -9 34 -13 17 -4 30 -11 30 -16 0 -6 4 -8 9 -5 16
10 111 -96 140 -158 36 -75 50 -123 58 -201 4 -33 7 -1444 7 -3135 -1 -3172 0
-3132 -38 -3235 -22 -59 -65 -130 -101 -166 -42 -43 -102 -79 -131 -79 -10 0
-15 -3 -11 -6 5 -5 590 -8 727 -4 l35 1 -50 24 c-51 25 -135 107 -135 132 0 7
-3 13 -8 13 -12 0 -44 85 -63 170 -10 43 -13 719 -13 3123 -1 1688 1 3070 4
3072 3 2 27 -65 54 -148 26 -84 52 -161 56 -172 5 -11 14 -38 20 -60 6 -22 14
-47 17 -55 4 -8 7 -17 8 -20 1 -3 4 -12 8 -20 8 -22 348 -1052 352 -1070 5
-21 105 -320 115 -345 7 -17 242 -730 246 -745 0 -3 3 -12 7 -20 3 -8 81 -244
172 -525 92 -280 169 -517 172 -525 3 -8 7 -19 9 -25 2 -5 29 -89 62 -185 32
-96 91 -276 131 -400 41 -124 77 -234 82 -245 4 -11 13 -38 20 -60 7 -22 18
-53 24 -70 7 -16 16 -41 20 -55 8 -29 163 -508 172 -530 3 -8 7 -19 9 -25 1
-5 34 -104 72 -220 39 -116 75 -226 80 -245 6 -19 46 -141 89 -270 44 -129 99
-295 123 -368 l44 -133 153 4 c84 2 157 8 162 13 5 5 24 56 41 114 18 58 37
111 43 118 5 6 7 12 3 12 -3 0 -1 12 5 28 6 15 12 34 14 42 2 8 27 85 55 170
69 212 123 379 220 680 45 140 92 287 105 325 13 39 55 171 95 295 39 124 77
241 85 260 7 19 13 37 13 40 0 3 30 100 68 215 38 116 69 212 69 215 0 3 3 10
6 15 4 6 10 26 14 45 4 19 10 40 13 45 4 6 7 15 8 20 2 11 116 365 138 430 8
22 38 114 66 205 29 91 61 190 72 220 11 30 21 63 23 73 2 10 30 96 61 190 31
95 57 177 59 182 1 6 5 17 8 25 7 17 150 460 153 475 1 6 18 58 38 117 20 59
36 114 36 122 0 9 4 16 8 16 5 0 9 6 9 13 0 6 17 66 38 132 22 66 40 122 40
125 1 3 30 93 65 200 35 107 65 200 66 205 1 6 17 57 37 115 19 58 65 200 102
315 37 116 81 251 97 300 16 50 31 95 32 100 2 6 6 17 9 25 7 18 31 93 32 100
3 16 39 129 49 152 10 21 12 -653 11 -3045 -1 -1690 -5 -3083 -9 -3097 -4 -14
-9 -36 -12 -50 -13 -64 -79 -179 -129 -223 -27 -24 -91 -57 -110 -57 -9 0 -14
-3 -12 -7 4 -6 1385 -9 1447 -3 8 0 -4 9 -28 18 -49 20 -132 87 -132 108 0 8
-4 14 -9 14 -10 0 -67 126 -75 166 -3 16 -9 52 -13 79 -10 56 -9 6226 0 6264
34 135 77 224 134 279 37 34 100 70 130 74 10 2 -319 5 -732 8 -412 3 -758 3
-768 1 -13 -3 -8 -8 21 -21 78 -35 114 -107 118 -240 3 -110 -6 -158 -73 -361
-26 -79 -47 -146 -48 -149 0 -3 -12 -39 -25 -80 -13 -41 -24 -77 -25 -80 0 -3
-15 -48 -32 -100 -17 -52 -66 -203 -108 -335 -42 -132 -79 -247 -82 -255 -3
-8 -7 -19 -9 -25 -1 -5 -16 -50 -32 -100 -38 -115 -98 -301 -207 -640 -47
-148 -95 -295 -105 -325 -10 -30 -56 -170 -100 -310 -45 -140 -94 -293 -110
-340 -15 -47 -63 -193 -105 -325 -42 -132 -87 -271 -100 -310 -13 -38 -58
-178 -100 -310 -42 -132 -86 -266 -97 -299 -11 -32 -21 -63 -23 -70 -1 -6 -5
-18 -8 -26 -9 -23 -78 -240 -83 -259 -6 -25 -45 -144 -54 -166 -8 -20 -50
-151 -54 -170 -1 -5 -38 -118 -81 -250 l-78 -240 -39 115 c-22 63 -40 120 -42
125 -1 6 -48 150 -105 320 -57 171 -104 315 -106 320 -1 6 -5 17 -8 25 -3 8
-19 56 -36 105 -16 50 -80 245 -142 435 -62 190 -114 347 -115 350 0 3 -3 12
-7 20 -9 23 -58 173 -62 190 -2 8 -13 42 -25 75 -12 33 -23 67 -25 75 -2 8
-34 105 -70 215 -37 110 -68 207 -70 215 -2 8 -37 114 -77 235 -41 121 -94
281 -117 355 -24 74 -47 144 -52 155 -5 11 -41 119 -80 240 -102 313 -268 814
-350 1060 -39 116 -72 215 -73 220 -2 6 -6 24 -11 40 -4 17 -10 35 -14 40 -3
6 -6 12 -6 15 0 3 -27 86 -60 185 -32 99 -59 182 -60 185 -1 3 -4 14 -8 25
-27 84 -31 234 -8 304 20 58 73 119 110 126 13 2 26 7 29 10 3 2 -342 6 -766
7 -423 2 -768 0 -766 -4z"/>
</g>
</svg>
